<mxfile host="app.diagrams.net" agent="Mozilla/5.0 (Windows NT 10.0; Win64; x64) AppleWebKit/537.36 (KHTML, like Gecko) Chrome/136.0.0.0 Safari/537.36" version="27.0.3">
  <diagram name="Halaman-1" id="2apHOt6Ht9bQIbDa9D6R">
    <mxGraphModel dx="969" dy="568" grid="1" gridSize="10" guides="1" tooltips="1" connect="1" arrows="1" fold="1" page="1" pageScale="1" pageWidth="827" pageHeight="1169" math="0" shadow="0">
      <root>
        <mxCell id="0" />
        <mxCell id="1" parent="0" />
        <mxCell id="4xUSY2GAOdol_JTtOx8K-15" value="" style="edgeStyle=orthogonalEdgeStyle;rounded=0;orthogonalLoop=1;jettySize=auto;html=1;" edge="1" parent="1" source="4xUSY2GAOdol_JTtOx8K-1" target="4xUSY2GAOdol_JTtOx8K-2">
          <mxGeometry relative="1" as="geometry" />
        </mxCell>
        <mxCell id="4xUSY2GAOdol_JTtOx8K-1" value="IDENTITAS PEMINJAM" style="rounded=0;whiteSpace=wrap;html=1;" vertex="1" parent="1">
          <mxGeometry x="40" y="200" width="120" height="40" as="geometry" />
        </mxCell>
        <mxCell id="4xUSY2GAOdol_JTtOx8K-16" value="" style="edgeStyle=orthogonalEdgeStyle;rounded=0;orthogonalLoop=1;jettySize=auto;html=1;" edge="1" parent="1" source="4xUSY2GAOdol_JTtOx8K-2" target="4xUSY2GAOdol_JTtOx8K-3">
          <mxGeometry relative="1" as="geometry" />
        </mxCell>
        <mxCell id="4xUSY2GAOdol_JTtOx8K-2" value="BUKU" style="rounded=0;whiteSpace=wrap;html=1;" vertex="1" parent="1">
          <mxGeometry x="240" y="200" width="120" height="40" as="geometry" />
        </mxCell>
        <mxCell id="4xUSY2GAOdol_JTtOx8K-17" value="" style="edgeStyle=orthogonalEdgeStyle;rounded=0;orthogonalLoop=1;jettySize=auto;html=1;" edge="1" parent="1" source="4xUSY2GAOdol_JTtOx8K-3" target="4xUSY2GAOdol_JTtOx8K-4">
          <mxGeometry relative="1" as="geometry" />
        </mxCell>
        <mxCell id="4xUSY2GAOdol_JTtOx8K-19" value="" style="edgeStyle=orthogonalEdgeStyle;rounded=0;orthogonalLoop=1;jettySize=auto;html=1;" edge="1" parent="1" source="4xUSY2GAOdol_JTtOx8K-3" target="4xUSY2GAOdol_JTtOx8K-2">
          <mxGeometry relative="1" as="geometry" />
        </mxCell>
        <mxCell id="4xUSY2GAOdol_JTtOx8K-3" value="PEMINJAMAN" style="rounded=0;whiteSpace=wrap;html=1;" vertex="1" parent="1">
          <mxGeometry x="440" y="200" width="120" height="40" as="geometry" />
        </mxCell>
        <mxCell id="4xUSY2GAOdol_JTtOx8K-18" value="" style="edgeStyle=orthogonalEdgeStyle;rounded=0;orthogonalLoop=1;jettySize=auto;html=1;" edge="1" parent="1" source="4xUSY2GAOdol_JTtOx8K-4" target="4xUSY2GAOdol_JTtOx8K-3">
          <mxGeometry relative="1" as="geometry" />
        </mxCell>
        <mxCell id="4xUSY2GAOdol_JTtOx8K-4" value="PETUGAS" style="rounded=0;whiteSpace=wrap;html=1;" vertex="1" parent="1">
          <mxGeometry x="640" y="200" width="120" height="40" as="geometry" />
        </mxCell>
        <mxCell id="4xUSY2GAOdol_JTtOx8K-5" value="DETAIL PEMINJAMAN" style="rounded=0;whiteSpace=wrap;html=1;" vertex="1" parent="1">
          <mxGeometry x="340" y="320" width="120" height="40" as="geometry" />
        </mxCell>
        <mxCell id="4xUSY2GAOdol_JTtOx8K-6" value="" style="endArrow=none;html=1;rounded=0;exitX=0.5;exitY=0;exitDx=0;exitDy=0;" edge="1" parent="1" source="4xUSY2GAOdol_JTtOx8K-7">
          <mxGeometry width="50" height="50" relative="1" as="geometry">
            <mxPoint x="230" y="250" as="sourcePoint" />
            <mxPoint x="100" y="280" as="targetPoint" />
            <Array as="points">
              <mxPoint x="100" y="280" />
              <mxPoint x="100" y="240" />
            </Array>
          </mxGeometry>
        </mxCell>
        <mxCell id="4xUSY2GAOdol_JTtOx8K-7" value="&lt;span style=&quot;font-size: 7px;&quot;&gt;ID_NAMA&lt;/span&gt;" style="ellipse;whiteSpace=wrap;html=1;" vertex="1" parent="1">
          <mxGeometry x="67.5" y="270" width="65" height="20" as="geometry" />
        </mxCell>
        <mxCell id="4xUSY2GAOdol_JTtOx8K-8" value="" style="endArrow=none;html=1;rounded=0;exitX=0.5;exitY=0;exitDx=0;exitDy=0;entryX=0.117;entryY=1.068;entryDx=0;entryDy=0;entryPerimeter=0;" edge="1" parent="1" source="4xUSY2GAOdol_JTtOx8K-9" target="4xUSY2GAOdol_JTtOx8K-1">
          <mxGeometry width="50" height="50" relative="1" as="geometry">
            <mxPoint x="40" y="240" as="sourcePoint" />
            <mxPoint x="40" y="320" as="targetPoint" />
            <Array as="points" />
          </mxGeometry>
        </mxCell>
        <mxCell id="4xUSY2GAOdol_JTtOx8K-9" value="&lt;span style=&quot;font-size: 7px;&quot;&gt;NAMA&lt;/span&gt;" style="ellipse;whiteSpace=wrap;html=1;" vertex="1" parent="1">
          <mxGeometry x="20" y="300" width="65" height="20" as="geometry" />
        </mxCell>
        <mxCell id="4xUSY2GAOdol_JTtOx8K-10" value="&lt;font style=&quot;font-size: 5px;&quot;&gt;TANGGAL DAFTAR&lt;/font&gt;" style="ellipse;whiteSpace=wrap;html=1;" vertex="1" parent="1">
          <mxGeometry x="67.5" y="140" width="65" height="20" as="geometry" />
        </mxCell>
        <mxCell id="4xUSY2GAOdol_JTtOx8K-12" value="" style="endArrow=none;html=1;rounded=0;exitX=0.5;exitY=0;exitDx=0;exitDy=0;" edge="1" parent="1">
          <mxGeometry width="50" height="50" relative="1" as="geometry">
            <mxPoint x="99.76" y="190" as="sourcePoint" />
            <mxPoint x="99.76" y="200" as="targetPoint" />
            <Array as="points">
              <mxPoint x="99.76" y="200" />
              <mxPoint x="99.76" y="160" />
            </Array>
          </mxGeometry>
        </mxCell>
        <mxCell id="4xUSY2GAOdol_JTtOx8K-13" value="&lt;span style=&quot;font-size: 7px;&quot;&gt;EMAIL&lt;/span&gt;" style="ellipse;whiteSpace=wrap;html=1;" vertex="1" parent="1">
          <mxGeometry x="20" y="110" width="65" height="20" as="geometry" />
        </mxCell>
        <mxCell id="4xUSY2GAOdol_JTtOx8K-14" value="" style="endArrow=none;html=1;rounded=0;exitX=0.5;exitY=0;exitDx=0;exitDy=0;entryX=0.5;entryY=1;entryDx=0;entryDy=0;" edge="1" parent="1" target="4xUSY2GAOdol_JTtOx8K-13">
          <mxGeometry width="50" height="50" relative="1" as="geometry">
            <mxPoint x="52" y="200" as="sourcePoint" />
            <mxPoint x="53" y="143" as="targetPoint" />
            <Array as="points" />
          </mxGeometry>
        </mxCell>
        <mxCell id="4xUSY2GAOdol_JTtOx8K-22" value="" style="endArrow=none;html=1;rounded=0;entryX=0.5;entryY=1;entryDx=0;entryDy=0;exitX=0.417;exitY=0;exitDx=0;exitDy=0;startArrow=classic;startFill=1;exitPerimeter=0;" edge="1" parent="1" source="4xUSY2GAOdol_JTtOx8K-5" target="4xUSY2GAOdol_JTtOx8K-2">
          <mxGeometry width="50" height="50" relative="1" as="geometry">
            <mxPoint x="220" y="320" as="sourcePoint" />
            <mxPoint x="270" y="270" as="targetPoint" />
          </mxGeometry>
        </mxCell>
        <mxCell id="4xUSY2GAOdol_JTtOx8K-23" value="" style="endArrow=none;html=1;rounded=0;entryX=0.5;entryY=1;entryDx=0;entryDy=0;exitX=0.25;exitY=0;exitDx=0;exitDy=0;startArrow=classic;startFill=1;" edge="1" parent="1" source="4xUSY2GAOdol_JTtOx8K-5" target="4xUSY2GAOdol_JTtOx8K-1">
          <mxGeometry width="50" height="50" relative="1" as="geometry">
            <mxPoint x="220" y="320" as="sourcePoint" />
            <mxPoint x="270" y="270" as="targetPoint" />
          </mxGeometry>
        </mxCell>
        <mxCell id="4xUSY2GAOdol_JTtOx8K-24" value="" style="endArrow=none;html=1;rounded=0;entryX=0.5;entryY=1;entryDx=0;entryDy=0;exitX=0.583;exitY=0;exitDx=0;exitDy=0;startArrow=openThin;startFill=0;exitPerimeter=0;" edge="1" parent="1" source="4xUSY2GAOdol_JTtOx8K-5" target="4xUSY2GAOdol_JTtOx8K-3">
          <mxGeometry width="50" height="50" relative="1" as="geometry">
            <mxPoint x="410" y="330" as="sourcePoint" />
            <mxPoint x="310" y="250" as="targetPoint" />
          </mxGeometry>
        </mxCell>
        <mxCell id="4xUSY2GAOdol_JTtOx8K-25" value="" style="endArrow=none;html=1;rounded=0;entryX=0.5;entryY=1;entryDx=0;entryDy=0;exitX=0.75;exitY=0;exitDx=0;exitDy=0;startArrow=classicThin;startFill=1;" edge="1" parent="1" source="4xUSY2GAOdol_JTtOx8K-5" target="4xUSY2GAOdol_JTtOx8K-4">
          <mxGeometry width="50" height="50" relative="1" as="geometry">
            <mxPoint x="410" y="330" as="sourcePoint" />
            <mxPoint x="510" y="250" as="targetPoint" />
          </mxGeometry>
        </mxCell>
        <mxCell id="4xUSY2GAOdol_JTtOx8K-26" value="&lt;span style=&quot;font-size: 7px;&quot;&gt;ID_BUKU&lt;/span&gt;" style="ellipse;whiteSpace=wrap;html=1;" vertex="1" parent="1">
          <mxGeometry x="200" y="160" width="65" height="20" as="geometry" />
        </mxCell>
        <mxCell id="4xUSY2GAOdol_JTtOx8K-27" value="" style="endArrow=none;html=1;rounded=0;entryX=0.5;entryY=1;entryDx=0;entryDy=0;exitX=0.25;exitY=0;exitDx=0;exitDy=0;" edge="1" parent="1" source="4xUSY2GAOdol_JTtOx8K-2" target="4xUSY2GAOdol_JTtOx8K-26">
          <mxGeometry width="50" height="50" relative="1" as="geometry">
            <mxPoint x="410" y="330" as="sourcePoint" />
            <mxPoint x="310" y="250" as="targetPoint" />
          </mxGeometry>
        </mxCell>
        <mxCell id="4xUSY2GAOdol_JTtOx8K-28" value="&lt;span style=&quot;font-size: 7px;&quot;&gt;JUDUL BUKU&lt;/span&gt;" style="ellipse;whiteSpace=wrap;html=1;" vertex="1" parent="1">
          <mxGeometry x="240" y="120" width="65" height="20" as="geometry" />
        </mxCell>
        <mxCell id="4xUSY2GAOdol_JTtOx8K-29" value="" style="endArrow=none;html=1;rounded=0;entryX=0.5;entryY=1;entryDx=0;entryDy=0;" edge="1" parent="1" target="4xUSY2GAOdol_JTtOx8K-28">
          <mxGeometry width="50" height="50" relative="1" as="geometry">
            <mxPoint x="277" y="200" as="sourcePoint" />
            <mxPoint x="243" y="190" as="targetPoint" />
          </mxGeometry>
        </mxCell>
        <mxCell id="4xUSY2GAOdol_JTtOx8K-30" value="&lt;span style=&quot;font-size: 7px;&quot;&gt;PENGARANG&lt;/span&gt;" style="ellipse;whiteSpace=wrap;html=1;" vertex="1" parent="1">
          <mxGeometry x="290" y="150" width="65" height="20" as="geometry" />
        </mxCell>
        <mxCell id="4xUSY2GAOdol_JTtOx8K-31" value="" style="endArrow=none;html=1;rounded=0;entryX=0.5;entryY=1;entryDx=0;entryDy=0;" edge="1" parent="1" target="4xUSY2GAOdol_JTtOx8K-30">
          <mxGeometry width="50" height="50" relative="1" as="geometry">
            <mxPoint x="300" y="200" as="sourcePoint" />
            <mxPoint x="283" y="150" as="targetPoint" />
          </mxGeometry>
        </mxCell>
        <mxCell id="4xUSY2GAOdol_JTtOx8K-32" value="&lt;span style=&quot;font-size: 7px;&quot;&gt;PENERBIT&lt;/span&gt;" style="ellipse;whiteSpace=wrap;html=1;" vertex="1" parent="1">
          <mxGeometry x="340" y="120" width="65" height="20" as="geometry" />
        </mxCell>
        <mxCell id="4xUSY2GAOdol_JTtOx8K-33" value="" style="endArrow=none;html=1;rounded=0;entryX=0.5;entryY=1;entryDx=0;entryDy=0;exitX=0.885;exitY=0.008;exitDx=0;exitDy=0;exitPerimeter=0;" edge="1" parent="1" source="4xUSY2GAOdol_JTtOx8K-2" target="4xUSY2GAOdol_JTtOx8K-32">
          <mxGeometry width="50" height="50" relative="1" as="geometry">
            <mxPoint x="310" y="210" as="sourcePoint" />
            <mxPoint x="333" y="180" as="targetPoint" />
          </mxGeometry>
        </mxCell>
        <mxCell id="4xUSY2GAOdol_JTtOx8K-34" value="&lt;font style=&quot;font-size: 6px;&quot;&gt;ID_PEMINJAMAN&lt;/font&gt;" style="ellipse;whiteSpace=wrap;html=1;" vertex="1" parent="1">
          <mxGeometry x="405" y="160" width="65" height="20" as="geometry" />
        </mxCell>
        <mxCell id="4xUSY2GAOdol_JTtOx8K-35" value="" style="endArrow=none;html=1;rounded=0;entryX=0.5;entryY=1;entryDx=0;entryDy=0;exitX=0.25;exitY=0;exitDx=0;exitDy=0;" edge="1" parent="1" source="4xUSY2GAOdol_JTtOx8K-3" target="4xUSY2GAOdol_JTtOx8K-34">
          <mxGeometry width="50" height="50" relative="1" as="geometry">
            <mxPoint x="356" y="210" as="sourcePoint" />
            <mxPoint x="383" y="150" as="targetPoint" />
          </mxGeometry>
        </mxCell>
        <mxCell id="4xUSY2GAOdol_JTtOx8K-36" value="&lt;font style=&quot;font-size: 6px;&quot;&gt;TANGGAL_PEMINJAMAN&lt;/font&gt;" style="ellipse;whiteSpace=wrap;html=1;" vertex="1" parent="1">
          <mxGeometry x="414" y="90" width="80" height="40" as="geometry" />
        </mxCell>
        <mxCell id="4xUSY2GAOdol_JTtOx8K-37" value="" style="endArrow=none;html=1;rounded=0;entryX=0.5;entryY=1;entryDx=0;entryDy=0;exitX=0.392;exitY=-0.05;exitDx=0;exitDy=0;exitPerimeter=0;" edge="1" parent="1" source="4xUSY2GAOdol_JTtOx8K-3" target="4xUSY2GAOdol_JTtOx8K-36">
          <mxGeometry width="50" height="50" relative="1" as="geometry">
            <mxPoint x="480" y="210" as="sourcePoint" />
            <mxPoint x="448" y="190" as="targetPoint" />
          </mxGeometry>
        </mxCell>
        <mxCell id="4xUSY2GAOdol_JTtOx8K-38" value="&lt;font style=&quot;font-size: 6px;&quot;&gt;TANGGAL_KEMBALI&lt;/font&gt;" style="ellipse;whiteSpace=wrap;html=1;" vertex="1" parent="1">
          <mxGeometry x="540" y="145" width="70" height="30" as="geometry" />
        </mxCell>
        <mxCell id="4xUSY2GAOdol_JTtOx8K-39" value="" style="endArrow=none;html=1;rounded=0;entryX=0.5;entryY=1;entryDx=0;entryDy=0;exitX=0.567;exitY=0;exitDx=0;exitDy=0;exitPerimeter=0;" edge="1" parent="1" source="4xUSY2GAOdol_JTtOx8K-3" target="4xUSY2GAOdol_JTtOx8K-38">
          <mxGeometry width="50" height="50" relative="1" as="geometry">
            <mxPoint x="480" y="210" as="sourcePoint" />
            <mxPoint x="448" y="190" as="targetPoint" />
          </mxGeometry>
        </mxCell>
        <mxCell id="4xUSY2GAOdol_JTtOx8K-40" value="&lt;font style=&quot;font-size: 6px;&quot;&gt;STATUS_BUKU&lt;/font&gt;" style="ellipse;whiteSpace=wrap;html=1;" vertex="1" parent="1">
          <mxGeometry x="510" y="90" width="70" height="30" as="geometry" />
        </mxCell>
        <mxCell id="4xUSY2GAOdol_JTtOx8K-41" value="" style="endArrow=none;html=1;rounded=0;entryX=0.5;entryY=1;entryDx=0;entryDy=0;exitX=0.5;exitY=0;exitDx=0;exitDy=0;" edge="1" parent="1" source="4xUSY2GAOdol_JTtOx8K-3" target="4xUSY2GAOdol_JTtOx8K-40">
          <mxGeometry width="50" height="50" relative="1" as="geometry">
            <mxPoint x="518" y="210" as="sourcePoint" />
            <mxPoint x="585" y="185" as="targetPoint" />
          </mxGeometry>
        </mxCell>
        <mxCell id="4xUSY2GAOdol_JTtOx8K-42" value="&lt;font style=&quot;font-size: 6px;&quot;&gt;ID_PETUGAS&lt;/font&gt;" style="ellipse;whiteSpace=wrap;html=1;" vertex="1" parent="1">
          <mxGeometry x="720" y="105" width="70" height="30" as="geometry" />
        </mxCell>
        <mxCell id="4xUSY2GAOdol_JTtOx8K-43" value="" style="endArrow=none;html=1;rounded=0;entryX=0.5;entryY=1;entryDx=0;entryDy=0;exitX=0.956;exitY=-0.025;exitDx=0;exitDy=0;exitPerimeter=0;" edge="1" parent="1" source="4xUSY2GAOdol_JTtOx8K-4" target="4xUSY2GAOdol_JTtOx8K-42">
          <mxGeometry width="50" height="50" relative="1" as="geometry">
            <mxPoint x="510" y="210" as="sourcePoint" />
            <mxPoint x="555" y="130" as="targetPoint" />
          </mxGeometry>
        </mxCell>
        <mxCell id="4xUSY2GAOdol_JTtOx8K-44" value="&lt;font style=&quot;font-size: 6px;&quot;&gt;NAMA_PETUGAS&lt;/font&gt;" style="ellipse;whiteSpace=wrap;html=1;" vertex="1" parent="1">
          <mxGeometry x="630" y="110" width="70" height="30" as="geometry" />
        </mxCell>
        <mxCell id="4xUSY2GAOdol_JTtOx8K-45" value="" style="endArrow=none;html=1;rounded=0;entryX=0.5;entryY=0;entryDx=0;entryDy=0;exitX=0.5;exitY=1;exitDx=0;exitDy=0;" edge="1" parent="1" source="4xUSY2GAOdol_JTtOx8K-44" target="4xUSY2GAOdol_JTtOx8K-4">
          <mxGeometry width="50" height="50" relative="1" as="geometry">
            <mxPoint x="754.58" y="304" as="sourcePoint" />
            <mxPoint x="754.58" y="240" as="targetPoint" />
          </mxGeometry>
        </mxCell>
      </root>
    </mxGraphModel>
  </diagram>
</mxfile>
